<svg width="180" height="42" viewBox="0 0 180 42" fill="none" xmlns="http://www.w3.org/2000/svg">
<path d="M73.6567 4.83487V8.68616H70.0461H66.4355V11.3339V13.9817H70.0461H73.6567V22.8878V31.7939H76.3045H78.9523V22.8878V13.9817H84.0071H89.0619V11.3339V8.68616H84.0071H78.9523V4.83487V0.983568H76.3045H73.6567V4.83487Z" fill="#0087F9"/>
<path d="M146.35 1.32106C146.35 1.56177 149.671 8.44596 153.763 16.7263C160.262 29.9169 161.37 31.7945 162.477 32.0833C163.392 32.324 164.017 32.1314 164.643 31.5056C165.125 30.9761 168.783 23.9474 172.779 15.7634L180 0.984074L177.016 1.03222H174.031L168.976 11.4307C166.184 17.1595 163.68 22.1662 163.392 22.5513C162.958 23.1772 161.803 21.2515 157.422 12.1528L151.982 0.984074H149.142C147.601 0.984074 146.35 1.1285 146.35 1.32106Z" fill="#0087F9"/>
<path d="M0.770259 9.45642C0.0962824 10.0823 0 11.8153 0 21.0103V31.7939H2.64777H5.29553V22.8878V13.9817H9.5801C15.5978 13.9817 15.4052 13.6447 15.4052 23.6581V31.7939H18.1011H20.7489L20.6044 22.8878L20.46 13.9817H23.6373C25.4186 13.9817 27.0072 14.2224 27.3442 14.5594C27.7293 14.9445 27.9219 17.6404 27.9219 23.4655V31.7939H30.5697H33.2174V22.9841C33.2174 12.9707 32.8805 11.6709 29.5587 9.79341C27.97 8.87873 26.9591 8.68616 23.0115 8.68616C19.1121 8.68616 18.2937 8.83058 18.2937 9.40828C18.2937 9.79341 18.1974 10.1304 18.1011 10.1304C18.0048 10.1304 17.1383 9.79341 16.2236 9.40828C13.6721 8.34917 1.82937 8.39731 0.770259 9.45642Z" fill="#0087F9"/>
<path d="M42.4614 9.50456C39.3323 11.0451 38.7546 12.4893 38.6101 19.7586C38.4657 27.4612 38.9471 28.9536 42.3652 30.6867C44.2427 31.6495 45.2536 31.7939 50.164 31.7939H55.8447V29.435V27.0761L50.2603 26.8835C43.2798 26.691 43.328 26.7391 43.328 20.1438C43.328 13.5966 43.4243 13.5003 50.9343 13.5003C57.1445 13.5003 58.7332 14.0298 58.7332 16.1481C58.7332 18.4107 57.6741 18.7958 51.7046 18.7958H46.2165V21.251V23.7062L52.9081 23.5137L59.6479 23.3692L61.3328 21.7324C65.0878 18.1218 64.2213 11.8635 59.6479 9.5527C57.3371 8.34917 44.8685 8.30103 42.4614 9.50456Z" fill="#0087F9"/>
<path d="M96.9078 9.60085C95.4636 10.2748 94.5971 11.0932 93.9231 12.4893C93.0084 14.2224 92.9121 15.2815 92.9121 23.1285V31.7939H95.5599H98.2076V23.4655C98.2076 17.6404 98.4002 14.9445 98.7853 14.5594C99.1705 14.1743 101.529 13.9817 106.247 13.9817H113.131V11.3339V8.68616H106.055C100.085 8.68616 98.5928 8.87873 96.9078 9.60085Z" fill="#0087F9"/>
<path d="M117.079 17.4479C117.272 27.6538 117.609 28.8573 121.316 30.6867C123.145 31.6495 124.204 31.7939 129.115 31.7939H134.795V29.1462V26.4984H129.307C121.99 26.4984 122.279 26.8835 122.279 16.5332V8.68616H119.583H116.887L117.079 17.4479Z" fill="#0087F9"/>
<path d="M137.685 21.7325C137.685 29.7721 137.492 35.1158 137.203 35.6935C136.722 36.5119 136.144 36.6082 130.945 36.6082H125.168V39.3041V42L131.619 41.8074C138.648 41.663 139.514 41.3742 141.729 38.3413C142.691 37.0896 142.74 36.2712 142.884 22.8398L143.028 8.68628H140.381H137.685V21.7325Z" fill="#0087F9"/>
</svg>
