<svg width="73" height="64" viewBox="0 0 73 64" fill="none" xmlns="http://www.w3.org/2000/svg">
<g clip-path="url(#clip0_5450_2359)">
<path d="M37.7654 3.57905C37.7654 5.56008 36.1745 7.16472 34.2024 7.16472C32.2302 7.16472 30.6328 5.56668 30.6328 3.58565C30.6328 1.60463 32.2236 0 34.1958 0C36.168 0 37.7654 1.59803 37.7654 3.57905Z" fill="#E73823"/>
<path d="M52.4172 14.7984C52.4172 16.7199 50.8657 18.2783 48.9528 18.2783C47.0397 18.2783 45.4883 16.7199 45.4883 14.7984C45.4883 12.8767 47.0397 11.3184 48.9528 11.3184C50.8657 11.3184 52.4106 12.8767 52.4172 14.7984Z" fill="#E73823"/>
<path d="M24.2809 14.6862C24.2809 16.4691 22.8412 17.9152 21.0661 17.9152C19.2912 17.9152 17.8516 16.4691 17.8516 14.6862C17.8516 12.9099 19.2846 11.4637 21.0531 11.4571C22.828 11.4505 24.2677 12.8834 24.2809 14.6663C24.2809 14.6729 24.2809 14.6795 24.2809 14.6862Z" fill="#E73823"/>
<path d="M52.1219 31.7498C52.1219 33.8498 50.4259 35.5534 48.3353 35.5534C46.2449 35.5534 44.5488 33.8498 44.5488 31.7498C44.5488 29.65 46.2449 27.9463 48.3353 27.9463C50.4259 27.9463 52.1219 29.65 52.1219 31.7498Z" fill="#E73823"/>
<path d="M29.1669 34.0468C29.1669 36.2788 27.3657 38.0948 25.1371 38.0948C22.9153 38.0948 21.1074 36.2854 21.1074 34.0468C21.1074 31.8083 22.9087 29.999 25.1371 29.999C27.3657 29.999 29.1669 31.8083 29.1669 34.0468Z" fill="#E73823"/>
<path d="M31.7357 20.6555C31.7357 21.798 30.8088 22.729 29.6716 22.729C28.5343 22.729 27.6074 21.798 27.6074 20.6555C27.6074 19.5131 28.5343 18.582 29.6716 18.582C30.8088 18.582 31.7357 19.5131 31.7357 20.6555Z" fill="#E73823"/>
<path d="M34.6414 12.738C34.6414 14.3493 33.3397 15.6568 31.7357 15.6568C30.1317 15.6568 28.8301 14.3493 28.8301 12.738C28.8301 11.1268 30.1317 9.81934 31.7357 9.81934C33.3397 9.81934 34.6414 11.1268 34.6414 12.738Z" fill="#E73823"/>
<path d="M42.9638 14.6856C42.9638 15.8345 42.0369 16.7656 40.8929 16.7656C39.7492 16.7656 38.8223 15.8345 38.8223 14.6856C38.8223 13.5365 39.7492 12.6055 40.8929 12.6055C42.0369 12.6055 42.9638 13.5365 42.9638 14.6856Z" fill="#E73823"/>
<path d="M45.4882 19.9362C45.4882 20.7418 44.8374 21.3889 44.042 21.3889C43.2465 21.3889 42.5957 20.7352 42.5957 19.9362C42.5957 19.1306 43.2465 18.4834 44.042 18.4834C44.8374 18.4834 45.4882 19.1306 45.4882 19.9362Z" fill="#E73823"/>
<path d="M42.064 26.1434C42.064 28.3225 40.3089 30.0856 38.1394 30.0856C35.9701 30.0856 34.2148 28.3225 34.2148 26.1434C34.2148 23.9642 35.9701 22.2012 38.1394 22.2012C40.3089 22.2012 42.064 23.9709 42.064 26.1434Z" fill="#E73823"/>
<path d="M55.3681 10.7435C55.3681 11.6151 54.6713 12.3217 53.8035 12.3217C52.9359 12.3217 52.2324 11.6217 52.2324 10.7501C52.2324 9.87844 52.9293 9.17188 53.7969 9.17188C54.6647 9.17188 55.3681 9.87184 55.3681 10.7435Z" fill="#E73823"/>
<path d="M5.30283 52.9136C5.30283 52.1014 4.59943 51.8967 2.99542 51.0448C1.44399 50.2195 0.313286 49.5129 0.313286 47.9347C0.313286 46.3564 1.63463 45.1348 4.03409 45.1348C5.763 45.1348 6.82139 45.6103 7.4985 46.2772C7.66285 46.4423 7.62341 46.6074 7.51822 46.7923L6.65047 48.179C6.50585 48.4035 6.19687 48.3243 6.03254 48.1393C5.53292 47.545 4.80979 47.1884 4.03409 47.1423C3.39643 47.1423 2.96255 47.4526 2.96255 47.9281C2.96255 48.5884 3.70539 48.8195 5.23052 49.645C6.75566 50.4704 7.9521 51.0713 7.9521 52.874C7.9521 54.5117 6.57158 55.7928 3.92233 55.7928C2.56154 55.8389 1.23363 55.3503 0.234402 54.4259C0.0897766 54.2937 0.0766284 54.0626 0.208105 53.9174L0.214681 53.9108L0.977247 52.7287C1.12187 52.5042 1.3651 52.5439 1.59518 52.7684C2.11452 53.2438 3.06115 53.8051 3.90918 53.8051C4.75063 53.8051 5.30941 53.475 5.30283 52.9136Z" fill="#020F12"/>
<path d="M13.323 45.3122H15.8803C16.393 45.3122 16.5377 45.5631 16.5377 45.9527V46.5536C16.5377 47.029 16.3536 47.1942 15.9198 47.1942H13.323V51.275C13.323 52.3315 13.3034 52.9324 13.6912 53.2627C14.079 53.5929 14.6444 53.6787 15.7948 53.2627C16.1432 53.1174 16.3339 53.3221 16.3339 53.6523V54.8343C16.3339 55.4153 14.8876 55.8116 14.3946 55.8116C11.3443 55.8116 10.6015 54.3192 10.6015 51.2552V47.2073H9.77319C9.22099 47.2073 9.05664 47.0422 9.05664 46.5668V45.9659C9.05664 45.53 9.29987 45.3253 9.8192 45.3253H10.6672L10.9762 42.7962C11.0354 42.2416 11.2654 41.8058 11.9229 41.8058H12.3764C12.8695 41.7727 13.2902 42.1425 13.3296 42.6312C13.3362 42.6839 13.3296 42.7434 13.323 42.7962V45.3122Z" fill="#020F12"/>
<path d="M20.2577 48.0265C19.7844 48.4624 19.6135 48.5813 19.1862 48.1057L18.5288 47.4454C18.1804 47.0558 18.279 46.7653 18.6339 46.4285C19.5214 45.6229 20.7376 45.1475 22.4073 45.1475C25.6219 45.1475 26.8972 47.0162 26.8972 49.6576V54.795C26.9499 55.2177 26.6474 55.6072 26.2267 55.6601C26.1873 55.6667 26.1544 55.6667 26.1149 55.6667H25.2473C24.8462 55.6931 24.4979 55.4026 24.4386 55.0063L24.1888 53.8837C23.7156 55.0261 22.7689 55.812 21.1188 55.812C19.1598 55.812 17.7793 54.4649 17.7793 52.748C17.7793 50.3245 19.9224 49.2877 22.644 49.2877C23.1567 49.2944 23.6629 49.3274 24.1691 49.3934V48.7925C24.1691 47.8153 23.5249 47.1747 22.3942 47.1747C21.5988 47.1548 20.8231 47.4587 20.2577 48.0265ZM21.9866 53.8903C23.3014 53.8903 24.1691 52.7743 24.1691 51.5065V50.8462C23.755 50.8065 23.3869 50.7868 23.0319 50.7868C21.3818 50.7868 20.4155 51.2622 20.4155 52.5103C20.422 53.3489 20.9808 53.8903 21.9866 53.8903Z" fill="#020F12"/>
<path d="M31.9782 49.4589V54.801C31.9782 55.3622 31.7284 55.6727 31.0053 55.6727H30.2032C29.559 55.6727 29.2566 55.3821 29.2566 54.801V46.3948C29.204 45.8468 29.605 45.3515 30.1507 45.2986C30.2032 45.292 30.2559 45.292 30.3084 45.2986H31.0316C31.6298 45.2986 31.7349 45.6091 31.8731 46.2495L31.9322 46.5005C32.5633 45.6486 33.5559 45.1468 34.6143 45.1534C35.5872 45.1534 36.1855 45.3383 36.6194 45.8137C36.948 46.1637 36.8626 46.3948 36.5996 46.7448L35.837 47.7221C35.5872 48.0324 35.4624 47.8674 35.1534 47.6363C34.7852 47.3787 34.3382 47.2664 33.8912 47.3061C32.7605 47.3127 31.9717 48.0523 31.9782 49.4589Z" fill="#020F12"/>
<path d="M40.6559 54.6569C40.6559 55.304 40.3863 55.6738 39.6435 55.6738H38.9401C38.1973 55.6738 37.9277 55.2842 37.9277 54.6832V41.9915C37.9277 41.3511 38.1973 40.9746 38.9401 40.9746H39.6435C40.3863 40.9746 40.6559 41.3511 40.6559 41.9915V54.6569Z" fill="#020F12"/>
<path d="M44.9432 48.0265C44.4698 48.4624 44.3055 48.5813 43.8716 48.1057L43.2142 47.4454C42.8658 47.0558 42.9644 46.7653 43.3194 46.4285C44.2069 45.6229 45.423 45.1475 47.0928 45.1475C50.3075 45.1475 51.5828 47.0162 51.5828 49.6576V54.795C51.6353 55.2177 51.3329 55.6072 50.9122 55.6601C50.8728 55.6667 50.8399 55.6667 50.8005 55.6667H49.9327C49.5317 55.6931 49.1833 55.4026 49.1307 55.0063L48.8809 53.8837C48.4076 55.0261 47.4609 55.812 45.8043 55.812C43.8454 55.812 42.4648 54.4649 42.4648 52.748C42.4648 50.3245 44.6079 49.2877 47.3295 49.2877C47.8423 49.2944 48.3485 49.3274 48.8546 49.3934V48.7925C48.8546 47.8153 48.2169 47.1747 47.0796 47.1747C46.2908 47.1548 45.5151 47.4587 44.9432 48.0265ZM46.6786 53.8903C48 53.8903 48.8611 52.7743 48.8611 51.5065V50.8462C48.447 50.8065 48.0789 50.7868 47.7239 50.7868C46.0738 50.7868 45.1075 51.2622 45.1075 52.5103C45.1075 53.3489 45.6663 53.8903 46.6786 53.8903Z" fill="#020F12"/>
<path d="M56.5339 54.801C56.3893 55.2765 56.1 55.6726 55.6267 55.6726H55.0088C54.4632 55.7057 53.9898 55.2897 53.957 54.7349C53.957 54.6822 53.957 54.6293 53.957 54.5765V41.8385C53.957 41.2574 54.266 40.9668 54.9037 40.9668H55.7056C56.4288 40.9668 56.6786 41.3565 56.6786 41.9177V46.4147C57.3557 45.576 58.3943 45.1072 59.4659 45.1534C61.7733 45.1534 63.7717 46.8505 63.7717 50.3107C63.7717 53.4803 61.9377 55.818 59.433 55.818C58.1314 55.818 57.1059 55.2171 56.6259 54.4114L56.5339 54.801ZM61.1619 50.3041C61.1619 48.4022 60.2153 47.3061 58.7297 47.3061C57.3491 47.3061 56.3564 48.4618 56.3564 50.3041C56.3564 52.5426 57.3688 53.5331 58.6638 53.5331C60.2153 53.5331 61.1619 52.5625 61.1619 50.3041Z" fill="#020F12"/>
<path d="M70.3451 52.9136C70.3451 52.1014 69.6416 51.8967 68.031 51.0448C66.4797 50.2195 65.3555 49.5129 65.3555 47.9347C65.3555 46.3564 66.6703 45.1348 69.0763 45.1348C70.8053 45.1348 71.8636 45.6103 72.5407 46.2772C72.705 46.4423 72.6657 46.6074 72.5605 46.7923L71.6993 48.1989C71.5547 48.4233 71.2457 48.3441 71.0813 48.1592C70.5817 47.5649 69.8586 47.2083 69.0829 47.1621C68.4453 47.1621 68.0114 47.4724 68.0114 47.9478C68.0114 48.6082 68.7542 48.8393 70.2794 49.6647C71.8045 50.4902 73.0009 51.0911 73.0009 52.8939C73.0009 54.5314 71.6204 55.8125 68.9711 55.8125C67.6037 55.8588 66.2825 55.3569 65.2833 54.4259C65.1385 54.2937 65.1255 54.0626 65.2569 53.9174L65.2635 53.9108L66.0261 52.7287C66.1707 52.5042 66.4205 52.5439 66.644 52.7684C67.1568 53.2438 68.1035 53.8051 68.9515 53.8051C69.7995 53.8051 70.3451 53.475 70.3451 52.9136Z" fill="#020F12"/>
<path d="M0.517578 63.9147V60.1573H1.68772C2.02299 60.1309 2.35168 60.2366 2.61463 60.4412C2.83815 60.6393 2.95648 60.9299 2.94332 61.2336C2.95648 61.5373 2.82499 61.8279 2.59491 62.0195C2.33196 62.2241 2.00984 62.3232 1.68115 62.3034H1.04349V63.9213H0.517578V63.9147ZM1.04349 61.8213H1.62199C1.8192 61.8345 2.02299 61.7884 2.18733 61.6827C2.31224 61.5704 2.37798 61.4053 2.36483 61.2336C2.37798 61.0619 2.31224 60.8969 2.18733 60.7846C2.01642 60.679 1.8192 60.6261 1.62199 60.6459H1.04349V61.8213Z" fill="#020F12"/>
<path d="M4.0293 63.9143V60.1569H5.12712C5.44266 60.1371 5.75164 60.2295 6.00145 60.4277C6.34986 60.7974 6.40903 61.3521 6.13949 61.788C6.00145 61.9531 5.81737 62.0719 5.60701 62.1248C5.67275 62.1577 5.73191 62.204 5.78451 62.2634C5.8634 62.3492 5.9357 62.4483 6.00145 62.5474L6.90864 63.9209H6.25783L5.61358 62.9369C5.49526 62.7191 5.33092 62.5275 5.14684 62.3691C5.02194 62.2832 4.87075 62.2369 4.71954 62.2435H4.56835V63.9275H4.0293V63.9143ZM4.56835 61.7814H5.00879C5.20601 61.7946 5.40322 61.7351 5.56757 61.6229C5.69905 61.5172 5.76478 61.3521 5.75164 61.1805C5.76478 61.0154 5.69905 60.8437 5.57415 60.738C5.40323 60.6323 5.20601 60.5795 5.00222 60.5994H4.56835V61.7814Z" fill="#020F12"/>
<path d="M7.47266 62.0196C7.47266 61.7686 7.52525 61.5177 7.62385 61.2866C7.72904 61.0555 7.87366 60.8376 8.05773 60.6659C8.2418 60.481 8.46531 60.3423 8.70854 60.2433C9.20158 60.0517 9.74721 60.0517 10.2402 60.2433C10.7267 60.4348 11.1146 60.8177 11.3249 61.2998C11.4235 61.5375 11.4761 61.7951 11.4761 62.0592C11.4761 62.3101 11.4235 62.5611 11.3249 62.7988C11.2263 63.0365 11.0751 63.2478 10.8911 63.4195C10.707 63.6044 10.4835 63.7497 10.2402 63.8421C9.99701 63.9412 9.73406 63.9874 9.4711 63.9874C9.20815 63.9874 8.95177 63.9346 8.70854 63.8355C8.46531 63.7364 8.24837 63.5978 8.06431 63.4129C7.88023 63.2346 7.72904 63.0234 7.63044 62.7922C7.53182 62.5545 7.47923 62.2903 7.47923 62.0328L7.47266 62.0196ZM8.04458 62.0526C8.04458 62.2375 8.08402 62.4291 8.14976 62.6007C8.22208 62.7724 8.32726 62.9309 8.45873 63.0629C8.59021 63.195 8.74798 63.3006 8.9189 63.3733C9.09639 63.446 9.28047 63.4789 9.4711 63.4789C9.66175 63.4789 9.84581 63.4394 10.0233 63.3733C10.1942 63.3006 10.352 63.195 10.4835 63.0629C10.615 62.9309 10.7201 62.7724 10.7925 62.6007C10.8648 62.4291 10.9042 62.2441 10.8976 62.0526C10.8976 61.8677 10.8582 61.6828 10.7925 61.5111C10.7201 61.3328 10.615 61.1743 10.4835 61.0423C10.352 60.9102 10.1942 60.8046 10.0233 60.7319C9.8524 60.6593 9.66175 60.6197 9.47768 60.6263C9.29361 60.6263 9.10955 60.6659 8.93863 60.7319C8.76114 60.8046 8.60336 60.9102 8.4653 61.0423C8.33383 61.1743 8.22865 61.3328 8.15634 61.5045C8.09059 61.6762 8.05116 61.8611 8.04458 62.0526Z" fill="#020F12"/>
<path d="M12.6133 63.9134V60.1494H14.7498V60.6315H13.1458V61.7475H14.6971V62.2295H13.1458V63.9134H12.6133Z" fill="#020F12"/>
<path d="M15.9199 63.9134V60.1494H18.1681V60.6315H16.4524V61.774H18.1221V62.2626H16.4524V63.4314H18.2274V63.9134H15.9199Z" fill="#020F12"/>
<path d="M19.2608 63.6241V62.9175C19.3989 63.0826 19.5632 63.2279 19.7472 63.3401C19.8985 63.426 20.0694 63.4723 20.2403 63.4723C20.3981 63.4789 20.5493 63.4326 20.6742 63.3401C20.7793 63.2543 20.8386 63.1223 20.8386 62.9836C20.8386 62.8713 20.7991 62.759 20.7333 62.6732C20.5822 62.5081 20.4047 62.3695 20.214 62.2572C19.9181 62.0921 19.6487 61.8808 19.4185 61.6365C19.3068 61.478 19.2542 61.2931 19.2542 61.095C19.2476 60.8243 19.3594 60.5601 19.5632 60.3752C19.7801 60.1837 20.0694 60.0846 20.3586 60.0979C20.5033 60.0979 20.6479 60.1177 20.7859 60.1574C20.9371 60.2035 21.0752 60.2695 21.2132 60.3554V60.9761C21.0752 60.8572 20.924 60.7583 20.7597 60.6855C20.6281 60.6261 20.4901 60.5997 20.3454 60.5932C20.2008 60.5866 20.0562 60.6328 19.9313 60.7186C19.8327 60.7912 19.7735 60.9101 19.7735 61.0289C19.7735 61.2138 19.9905 61.445 20.4309 61.7223L20.5098 61.7752C20.7793 61.9204 21.0225 62.1252 21.2132 62.3695C21.325 62.5544 21.3841 62.7723 21.3775 62.9901C21.3841 63.2609 21.2659 63.5184 21.0686 63.6967C20.8451 63.8883 20.5624 63.9873 20.2731 63.9741C20.089 63.9741 19.9051 63.9477 19.7276 63.8883C19.5566 63.8223 19.3989 63.7298 19.2608 63.6175" fill="#020F12"/>
<path d="M22.3359 63.6244V62.918C22.4739 63.083 22.6383 63.2283 22.8224 63.3406C22.9735 63.4264 23.1445 63.4726 23.3154 63.4726C23.4731 63.4792 23.631 63.433 23.7559 63.3406C23.8611 63.2547 23.9202 63.1226 23.9202 62.984C23.9202 62.8717 23.8808 62.7595 23.815 62.6737C23.6638 62.5086 23.4863 62.3698 23.2958 62.2575C22.9999 62.0925 22.7303 61.8812 22.5003 61.6369C22.2439 61.2406 22.3096 60.7189 22.6514 60.3888C22.8684 60.1974 23.1576 60.0983 23.4469 60.1115C23.5915 60.1115 23.7361 60.1312 23.8742 60.1709C24.0254 60.2171 24.1634 60.2832 24.3015 60.3691V60.9897C24.1634 60.8709 24.0122 60.7718 23.8479 60.6992C23.7165 60.6397 23.5718 60.6134 23.4272 60.6068C23.2826 60.6001 23.1379 60.6463 23.013 60.7322C22.9144 60.8048 22.8553 60.9237 22.8553 61.0426C22.8553 61.2275 23.0722 61.4586 23.5126 61.736L23.5915 61.7888C23.8611 61.934 24.1043 62.1387 24.2949 62.3831C24.4067 62.568 24.4659 62.7858 24.4593 63.0038C24.4659 63.2746 24.3541 63.532 24.1504 63.7103C23.9268 63.9018 23.6442 64.0009 23.3549 63.9877C23.1708 63.9877 22.9867 63.9613 22.8092 63.9018C22.6317 63.8358 22.4739 63.7434 22.3359 63.6244Z" fill="#020F12"/>
<path d="M26.1563 60.1494H25.6172V63.9069H26.1563V60.1494Z" fill="#020F12"/>
<path d="M27.3125 62.0196C27.3125 61.7686 27.3652 61.5177 27.4638 61.2866C27.5689 61.0555 27.7136 60.8376 27.8976 60.6659C28.0816 60.481 28.3052 60.3423 28.5484 60.2433C29.0415 60.0517 29.5871 60.0517 30.0802 60.2433C30.8295 60.5272 31.3291 61.2469 31.3226 62.0526C31.3226 62.3035 31.27 62.5545 31.1714 62.7922C31.0728 63.03 30.9216 63.2412 30.7375 63.4129C30.5534 63.5978 30.33 63.7364 30.0867 63.8355C29.8435 63.9346 29.5806 63.9808 29.3176 63.9808C28.7917 63.9808 28.2921 63.7761 27.9107 63.4129C27.7268 63.2346 27.5755 63.0234 27.4768 62.7922C27.3783 62.5545 27.3257 62.2903 27.3257 62.0328L27.3125 62.0196ZM27.8976 62.0526C27.8976 62.4291 28.0488 62.7855 28.3118 63.0497C28.4432 63.1818 28.601 63.2874 28.7719 63.3601C28.9428 63.4327 29.1335 63.4657 29.3176 63.4657C29.5083 63.4657 29.6988 63.4327 29.8697 63.3601C30.0407 63.2874 30.1984 63.1818 30.3299 63.0497C30.4614 62.9177 30.5666 62.7592 30.6389 62.5875C30.7112 62.4158 30.7507 62.2309 30.7441 62.0394C30.7441 61.8545 30.7112 61.6696 30.6389 61.4979C30.5666 61.3197 30.4614 61.1611 30.3299 61.0291C30.1984 60.897 30.0407 60.7914 29.8697 60.7188C29.5213 60.5734 29.1269 60.5734 28.7851 60.7188C28.6142 60.7914 28.4564 60.897 28.3184 61.0291C28.1869 61.1611 28.0816 61.3197 28.0094 61.4914C27.9371 61.6696 27.9041 61.8545 27.9041 62.046" fill="#020F12"/>
<path d="M32.4609 63.9134V60.1494H32.9212L35.3863 63.0748V60.1494H35.9253V63.9134H35.4455L32.9869 60.9948V63.9134H32.4609Z" fill="#020F12"/>
<path d="M36.7461 63.9146L38.3698 60.1572H38.7576L40.4011 63.9146H39.8489L39.369 62.8052H37.7716L37.2982 63.9146H36.7461ZM37.9819 62.3232H39.1587L38.5671 60.9629L37.9819 62.3232Z" fill="#020F12"/>
<path d="M41.25 63.9134V60.1494H41.7759V63.4314H43.5574V63.9134H41.25Z" fill="#020F12"/>
<path d="M46.2844 63.6241V62.9175C46.4224 63.0826 46.5868 63.2279 46.7709 63.3401C46.9221 63.426 47.0931 63.4723 47.264 63.4723C47.4217 63.4789 47.5795 63.4326 47.7043 63.3401C47.8095 63.2543 47.8687 63.1223 47.8687 62.9836C47.8687 62.8713 47.8293 62.759 47.7636 62.6732C47.6123 62.5147 47.4349 62.3827 47.2442 62.277C46.9484 62.1054 46.6788 61.8874 46.4422 61.6365C46.3304 61.478 46.2713 61.2931 46.2778 61.095C46.2713 60.8243 46.3831 60.5601 46.5868 60.3752C46.8104 60.1837 47.0931 60.0846 47.3822 60.0979C47.5268 60.0979 47.6715 60.1177 47.8095 60.1574C47.9607 60.2035 48.0988 60.2695 48.2369 60.3554V60.9761C48.0988 60.8572 47.9476 60.7583 47.7832 60.6855C47.6518 60.6261 47.5072 60.5997 47.3625 60.5932C47.2179 60.5866 47.0733 60.6328 46.9549 60.7186C46.8563 60.7912 46.7972 60.9035 46.7906 61.0289C46.7906 61.2138 47.0076 61.445 47.4545 61.7223L47.5334 61.7752C47.803 61.927 48.0462 62.1252 48.2369 62.3695C48.3486 62.5544 48.4078 62.7723 48.4012 62.9901C48.4078 63.2609 48.296 63.5184 48.0923 63.6967C47.8753 63.8883 47.5861 63.9873 47.2968 63.9741C47.1127 63.9741 46.9221 63.9477 46.7512 63.8883C46.5803 63.8223 46.4224 63.7298 46.2844 63.6175" fill="#020F12"/>
<path d="M49.5527 63.9134V60.1494H51.801V60.6315H50.0852V61.774H51.755V62.2626H50.0852V63.4314H51.8602V63.9134H49.5527Z" fill="#020F12"/>
<path d="M53.0762 63.9143V60.1569H54.174C54.4895 60.1371 54.7984 60.2295 55.0482 60.4277C55.2586 60.6191 55.3769 60.9031 55.3573 61.1871C55.3704 61.3983 55.3112 61.6097 55.1929 61.788C55.0548 61.9531 54.8707 62.0719 54.6604 62.1248C54.7261 62.1577 54.7853 62.204 54.8379 62.2634C54.9168 62.3492 54.9891 62.4483 55.0548 62.5474L55.9687 63.9209H55.3178L54.6604 62.9369C54.5421 62.7191 54.3843 62.5275 54.1936 62.3691C54.0688 62.2832 53.9176 62.2435 53.7663 62.2435H53.602V63.9275H53.0762V63.9143ZM53.6152 61.7814H54.0556C54.2529 61.7946 54.45 61.7417 54.6145 61.6361C54.7459 61.5305 54.8116 61.3654 54.7984 61.1937C54.8116 61.0286 54.7459 60.8569 54.6209 60.7512C54.45 60.6455 54.2529 60.5928 54.049 60.6125H53.6086V61.7814H53.6152Z" fill="#020F12"/>
<path d="M57.8622 63.9464L56.2188 60.1494H56.7776L57.9411 62.8371L59.1376 60.1494H59.6833L58.0068 63.9464H57.8622Z" fill="#020F12"/>
<path d="M61.084 60.1494H60.5449V63.9069H61.084V60.1494Z" fill="#020F12"/>
<path d="M65.6315 63.0231V63.6438C65.4211 63.756 65.191 63.8419 64.961 63.9079C64.7374 63.9674 64.5139 64.0003 64.2839 64.0003C64.0734 64.0003 63.8631 63.974 63.6659 63.9145C63.4686 63.8551 63.2845 63.7759 63.1136 63.6636C62.8442 63.4853 62.6206 63.2476 62.4629 62.9637C62.3051 62.6797 62.2262 62.3562 62.2328 62.0325C62.2328 61.7816 62.2853 61.5307 62.384 61.2996C62.4826 61.0619 62.6338 60.8505 62.8179 60.6788C63.0085 60.4939 63.2386 60.3487 63.4884 60.2496C63.7513 60.1505 64.0341 60.1044 64.3101 60.111C64.5205 60.111 64.7242 60.1374 64.928 60.1836C65.1515 60.2364 65.3685 60.3156 65.5788 60.4081V60.9959C65.3685 60.877 65.1449 60.7779 64.9083 60.7119C64.7046 60.6525 64.5007 60.6194 64.2904 60.6194C63.8894 60.6062 63.5015 60.7514 63.2057 61.0288C62.6404 61.5902 62.6404 62.508 63.1991 63.0693L63.2057 63.0759C63.4884 63.3532 63.8696 63.4985 64.2641 63.4853C64.4876 63.4853 64.7112 63.4457 64.9215 63.3731C65.1647 63.2938 65.3883 63.1816 65.5986 63.0363" fill="#020F12"/>
<path d="M66.7949 63.9134V60.1494H69.0432V60.6315H67.3209V61.774H68.9973V62.2626H67.3209V63.4314H69.1024V63.9134H66.7949Z" fill="#020F12"/>
<path d="M70.1487 63.6238V62.9173C70.2868 63.0824 70.4511 63.2276 70.6352 63.3399C70.7864 63.4257 70.9573 63.4719 71.1282 63.4719C71.286 63.4785 71.4437 63.4324 71.5687 63.3399C71.6738 63.2541 71.733 63.1219 71.7264 62.9833C71.7264 62.871 71.6869 62.7587 71.6212 62.6729C71.4635 62.5078 71.2794 62.3692 71.0821 62.2569C70.7864 62.0852 70.5168 61.8739 70.2868 61.6164C70.0304 61.2201 70.0961 60.6985 70.4379 60.3683C70.6548 60.1769 70.9441 60.0778 71.2334 60.091C71.378 60.091 71.5226 60.1107 71.6607 60.1504C71.8119 60.1966 71.9499 60.2627 72.088 60.3486V60.9692C71.9499 60.8504 71.7987 60.7513 71.6344 60.6787C71.5029 60.6192 71.3583 60.5929 71.2137 60.5862C71.069 60.5796 70.9244 60.6258 70.7995 60.7117C70.7009 60.7844 70.6417 60.9032 70.6417 61.0221C70.6417 61.207 70.8587 61.4381 71.2991 61.7155L71.378 61.7682C71.6476 61.9135 71.8908 62.1182 72.0814 62.3625C72.1931 62.5475 72.2524 62.7653 72.2458 62.9833C72.2524 63.2541 72.1406 63.5116 71.9367 63.6898C71.7133 63.8813 71.4306 63.9804 71.1414 63.9672C70.9573 63.9672 70.7732 63.9408 70.5957 63.8813C70.4248 63.8153 70.267 63.7228 70.1289 63.6105" fill="#020F12"/>
</g>
<defs>
<clipPath id="clip0_5450_2359">
<rect width="73" height="64" fill="white"/>
</clipPath>
</defs>
</svg>
